{"title":"Jack The Giant Slayer 2013 CAM XViD - JUSTiCE","uid":8361955,"size":1507336054,"categoryP":"video","categoryS":"movies","magnet":"?xt=urn:btih:1d5ff5b9bc5ab2bb909ec4fa503450bea4156f2a&amp;dn=Jack+The+Giant+Slayer+2013+CAM+XViD+-+JUSTiCE&amp;tr=udp%3A%2F%2Ftracker.openbittorrent.com%3A80&amp;tr=udp%3A%2F%2Fopen.demonii.com%3A1337&amp;tr=udp%3A%2F%2Ftracker.coppersurfer.tk%3A6969&amp;tr=udp%3A%2F%2Fexodus.desync.com%3A6969","seeders":0,"leechers":1,"uploader":"sceneline","files":5,"time":1365652450,"description":"-\n &lt;a href=&quot;\nhttp://www.Speed.&quot; rel=&quot;nofollow&quot; target=&quot;_NEW&quot;&gt;\nhttp://www.Speed.&lt;/a&gt; Cd       the fast  and The Hottest Private Tracker on the net &lt;a href=&quot;\nhttp://www.Speed.&quot; rel=&quot;nofollow&quot; target=&quot;_NEW&quot;&gt;\nhttp://www.Speed.&lt;/a&gt; Cd\n\nPlease Seed back to make the speed Faster!!\n ............ NFO .............\n-\n &lt;a href=&quot;\nhttp://www.Speed.&quot; rel=&quot;nofollow&quot; target=&quot;_NEW&quot;&gt;\nhttp://www.Speed.&lt;/a&gt; CdJack The Giant Slayer 2013 CAM XViD - JUSTiCE\n\n\nSOURCE : HP\n\n\nVideo and audio both cleaned and given justice.\nCheck sample and see.....\n\n\nVideo\nID                               : 0\nFormat                           : MPEG-4 Visual\nFormat profile                   : Advanced Simple@L5\nFormat settings, BVOP            : 2\nFormat settings, QPel            : No\nFormat settings, GMC             : No warppoints\nFormat settings, Matrix          : Default (MPEG)\nMuxing mode                      : Packed bitstream\nCodec ID                         : XVID\nCodec ID/Hint                    : XviD\nDuration                         : 1h 43mn\nBit rate                         : 1 767 Kbps\nWidth                            : 624 pixels\nHeight                           : 320 pixels\nDisplay aspect ratio             : 1.950\nFrame rate                       : 29.970 fps\nColor space                      : YUV\nChroma subsampling               : 4:2:0\nBit depth                        : 8 bits\nScan type                        : Progressive\nCompression mode                 : Lossy\nBits/(Pixel*Frame)               : 0.295\nStream size                      : 1.28 GiB (93%)\nWriting library                  : XviD 64\n\nAudio\nID                               : 1\nFormat                           : MPEG Audio\nFormat version                   : Version 1\nFormat profile                   : Layer 3\nMode                             : Joint stereo\nMode extension                   : MS Stereo\nCodec ID                         : 55\nCodec ID/Hint                    : MP3\nDuration                         : 1h 43mn\nBit rate mode                    : Constant\nBit rate                         : 128 Kbps\nChannel(s)                       : 2 channels\nSampling rate                    : 48.0 KHz\nCompression mode                 : Lossy\nStream size                      : 94.9 MiB (7%)\nAlignment                        : Split accross interleaves\nInterleave, duration             : 33 ms (1.00 video frame)\nInterleave, preload duration     : 500 ms\n\n\n[IMG]http://lookpic.com/O/i2/1165/EBs3tdaG.png[/IMG]\n[IMG]http://lookpic.com/O/i2/1553/ni21qPUX.png[/IMG]\n[IMG]http://lookpic.com/O/i2/1706/NyTB0WSs.png[/IMG]\n[IMG]http://lookpic.com/O/i2/1657/haGz6tm.png[/IMG]\n[IMG]http://lookpic.com/O/i2/1070/6w21mMTz.png[/IMG]","torrent":{"xt":"urn:btih:1d5ff5b9bc5ab2bb909ec4fa503450bea4156f2a","amp;dn":"Jack+The+Giant+Slayer+2013+CAM+XViD+-+JUSTiCE","amp;tr":["udp%3A%2F%2Ftracker.openbittorrent.com%3A80","udp%3A%2F%2Fopen.demonii.com%3A1337","udp%3A%2F%2Ftracker.coppersurfer.tk%3A6969","udp%3A%2F%2Fexodus.desync.com%3A6969"],"infoHash":"1d5ff5b9bc5ab2bb909ec4fa503450bea4156f2a","infoHashBuffer":{"type":"Buffer","data":[29,95,245,185,188,90,178,187,144,158,196,250,80,52,80,190,164,21,111,42]},"announce":[],"urlList":[]}}